<svg xmlns="http://www.w3.org/2000/svg" viewBox="0 0 902.28 1000"><defs><style>.cls-1{isolation:isolate;}.cls-2{fill:#43ebeb;}.cls-10,.cls-3{fill:#042fa8;}.cls-4{fill:#09ad00;}.cls-5{fill:#4f1fff;}.cls-6{fill:#18bf00;}.cls-7{fill:#56dd24;}.cls-8{fill:#7ff249;}.cls-9{fill:#1c1c1c;}.cls-10{mix-blend-mode:multiply;}</style></defs><title>Full Logo - Rev 2</title><g class="cls-1"><g id="Layer_1" data-name="Layer 1"><path class="cls-2" d="M317.92,4.89C396.62,4.89,461,69.28,461,148v86.56l-3.56,2h0l12.18-6.93V143.08C469.63,64.38,405.24,0,326.55,0h-1.8A141.79,141.79,0,0,0,251,20.82,141.67,141.67,0,0,1,316.12,4.89Z" transform="translate(-49.59)"/><path class="cls-3" d="M244.16,128.59V338l4.37-2.49V126.15c0-32,14.13-60.37,38.28-76.35-1.22.57-2.38,1.23-3.56,1.86C258.59,67.53,244.16,96.22,244.16,128.59Z" transform="translate(-49.59)"/><path class="cls-3" d="M159.5,406.1h0l-12.34,7a50.26,50.26,0,0,0-26,44.08,49.7,49.7,0,0,0,10.44,30.56l0,0L322.6,738.36a84.41,84.41,0,0,1-26.53,121.23l-5.57,3.18,0,0L71.75,987.38h0L300.86,856.87A84.39,84.39,0,0,0,327,735.93L135.9,485.36l0,0a49.76,49.76,0,0,1-10.44-30.56,50.28,50.28,0,0,1,26.13-44.14l2.85-1.63c.25-.13.46-.31.71-.44Z" transform="translate(-49.59)"/><path class="cls-4" d="M343.35,36.59S380.16,41,405.54,66.36c26.72,26.72,37.08,63,37.08,89.46V225.1l3.56-2V153.74c0-26.43-10.36-62.73-37.08-89.45-25.38-25.38-62.21-29.79-62.19-29.77C329,32.88,313.08,35.9,299.6,42.4c-.68.45-1.31,1-2,1.42C310.77,37.81,326.14,35,343.35,36.59Z" transform="translate(-49.59)"/><path class="cls-4" d="M173,148c0-50.25,26.32-94.58,65.8-120.12l-.77.37c-41,25.23-68.59,70.41-68.59,121.82V380.52l3.56-2Z" transform="translate(-49.59)"/><path class="cls-4" d="M421.46,495c22.86-29.91,24.72-68.29,24.72-78.63V351l-3.56,2v65.45c0,10.34-1.86,48.73-24.72,78.63a111.07,111.07,0,0,1-27.52,25.57l1.5-.72A111.27,111.27,0,0,0,421.46,495Z" transform="translate(-49.59)"/><path class="cls-4" d="M316.12,562.66C237.43,562.66,173,498.27,173,419.58V398.42l-7.92,4.51v0l4.36-2.48v21.18c0,78.69,64.39,143.08,143.08,143.08h1.8a141.72,141.72,0,0,0,64.52-15.62c.93-.57,1.88-1.11,2.79-1.7a141.54,141.54,0,0,1-63.75,15.25Z" transform="translate(-49.59)"/><path class="cls-4" d="M279.84,819.62a49.4,49.4,0,0,0-9.11-29.16L81.39,542.15a83.7,83.7,0,0,1-17.83-52,84.64,84.64,0,0,1,42.9-73.65l-2.95,1.67A84.7,84.7,0,0,0,60,492.17a83.68,83.68,0,0,0,17.83,52.05L267.17,792.53a49.43,49.43,0,0,1,9.11,29.16,50.43,50.43,0,0,1-24.13,43l3.36-1.91A50.46,50.46,0,0,0,279.84,819.62Z" transform="translate(-49.59)"/><polygon class="cls-4" points="9.98 974.46 9.98 994.31 13.54 992.29 13.54 972.44 9.98 974.46"/><path class="cls-5" d="M312.56,7h1.8C393.06,7,457.45,71.35,457.45,150v86.52l3.56-2V148C461,69.28,396.62,4.89,317.92,4.89h-1.8A141.67,141.67,0,0,0,251,20.82c-.93.57-1.87,1.12-2.79,1.71A141.58,141.58,0,0,1,312.56,7Z" transform="translate(-49.59)"/><path class="cls-5" d="M288.39,49.14c-.52.23-1.07.42-1.58.66-24.15,16-38.28,44.35-38.28,76.35V335.51l3.56-2V124.08C252.09,93,265.47,65.35,288.39,49.14Z" transform="translate(-49.59)"/><path class="cls-5" d="M248.53,448.1c0,52.16,37.22,97.36,94.82,91.91,0,0,16-1,35.51-10.73.69-.43,1.38-.89,2.07-1.34-18.79,9-34,10-34,10-57.6,5.45-94.82-39.76-94.82-91.91V353.52l-3.56,2Z" transform="translate(-49.59)"/><path class="cls-5" d="M125.49,454.78a49.76,49.76,0,0,0,10.44,30.56l0,0L327,735.93a84.39,84.39,0,0,1-26.11,120.94l3.14-1.78a84.43,84.43,0,0,0,26.53-121.23L139.46,483.29l0,0a50.15,50.15,0,0,1,15-74.26l-2.85,1.63A50.28,50.28,0,0,0,125.49,454.78Z" transform="translate(-49.59)"/><path class="cls-5" d="M454.8,346.06l2.65-1.51v77.1c0,50.55-26.65,95.09-66.51,120.56l.77-.38c41.4-25.14,69.3-70.54,69.3-122.25V342.5L454.8,346Z" transform="translate(-49.59)"/><path class="cls-6" d="M343.35,36.59S380.16,41,405.54,66.36c26.72,26.72,37.08,63,37.08,89.46V225.1l3.56-2V153.74c0-26.43-10.36-62.73-37.08-89.45-25.38-25.38-62.21-29.79-62.19-29.77C329,32.88,313.08,35.9,299.6,42.4c-.68.45-1.31,1-2,1.42C310.77,37.81,326.14,35,343.35,36.59Z" transform="translate(-49.59)"/><path class="cls-7" d="M405.54,66.36C380.16,41,343.33,36.58,343.35,36.59c-17.21-1.58-32.58,1.22-45.73,7.23q-1,.72-2.07,1.47A90.06,90.06,0,0,1,339,39s36.81,4.4,62.18,29.77c26.73,26.73,37.08,63,37.08,89.46v69.33l-5.61,3.19h0L287,313.72h0L442.62,225.1V155.82C442.62,129.39,432.26,93.08,405.54,66.36Z" transform="translate(-49.59)"/><path class="cls-7" d="M413.53,499.5a111.28,111.28,0,0,1-25.63,24.35c.82-.38,1.65-.8,2.48-1.21a111.07,111.07,0,0,0,27.52-25.57c22.86-29.9,24.72-68.29,24.72-78.63V353l3.56-2v-.05l1.29-.73h0l-9.22,5.24v65.44C438.25,431.21,436.4,469.6,413.53,499.5Z" transform="translate(-49.59)"/><path class="cls-7" d="M59.56,994.31V974.46l3.56-2v-.05l189-107.69a50.43,50.43,0,0,0,24.13-43,49.43,49.43,0,0,0-9.11-29.16L77.83,544.22A83.68,83.68,0,0,1,60,492.17a84.7,84.7,0,0,1,43.51-74.05l2.95-1.67c.21-.12.4-.28.61-.4l62.41-35.53V150c0-51.41,27.58-96.59,68.59-121.82-.6.3-1.22.56-1.81.87C193.84,54,165.12,100,165.12,152.47V383l-5.62,3.19h0L99.06,420.61a84.67,84.67,0,0,0-43.42,74,83.73,83.73,0,0,0,17.82,52L262.81,795a49.43,49.43,0,0,1,9.11,29.16,50.46,50.46,0,0,1-24.33,43.17l-5.6,3.19h0L55.2,976.9v19.9Z" transform="translate(-49.59)"/><path class="cls-7" d="M314.36,564.73h-1.8c-78.69,0-143.08-64.39-143.08-143.08V400.47L165.12,403v21.13c0,78.7,64.39,143.08,143.08,143.08H310a141.71,141.71,0,0,0,66.32-16.49c.87-.51,1.71-1,2.56-1.56A141.72,141.72,0,0,1,314.36,564.73Z" transform="translate(-49.59)"/><path class="cls-7" d="M59.56,994.31V974.46l3.56-2v-.05l189-107.69a50.43,50.43,0,0,0,24.13-43,49.43,49.43,0,0,0-9.11-29.16L77.83,544.22A83.68,83.68,0,0,1,60,492.17a84.7,84.7,0,0,1,43.51-74.05l2.95-1.67c.21-.12.4-.28.61-.4l62.41-35.53V150c0-51.41,27.58-96.59,68.59-121.82-.6.3-1.22.56-1.81.87C193.84,54,165.12,100,165.12,152.47V383l-5.62,3.19h0L99.06,420.61a84.67,84.67,0,0,0-43.42,74,83.73,83.73,0,0,0,17.82,52L262.81,795a49.43,49.43,0,0,1,9.11,29.16,50.46,50.46,0,0,1-24.33,43.17l-5.6,3.19h0L55.2,976.9v19.9Z" transform="translate(-49.59)"/><path class="cls-8" d="M333.38,42.23S370.19,46.62,395.56,72c26.73,26.73,37.08,63,37.08,89.46v69.32l5.61-3.19V158.25c0-26.43-10.35-62.73-37.08-89.46C375.8,43.42,339,39,339,39a90.06,90.06,0,0,0-43.44,6.27c-.91.68-1.85,1.3-2.72,2A90.75,90.75,0,0,1,333.38,42.23Z" transform="translate(-49.59)"/><path class="cls-8" d="M413.53,499.5c22.87-29.9,24.72-68.29,24.72-78.63V355.43l-5.61,3.2v65.44c0,10.35-1.86,48.73-24.72,78.63a111,111,0,0,1-23,22.44c1-.41,1.95-.83,3-1.29A111.28,111.28,0,0,0,413.53,499.5Z" transform="translate(-49.59)"/><path class="cls-8" d="M165.12,152.47c0-52.48,28.72-98.48,71.14-123.38-45.51,24-76.76,71.8-76.76,126.59V386.19l5.62-3.19Z" transform="translate(-49.59)"/><path class="cls-8" d="M308.2,567.16c-78.69,0-143.08-64.38-143.08-143.08V403l-1.71,1c-1.35.75-2.63,1.6-3.91,2.47v20.89c0,78.69,64.39,143.08,143.09,143.08h1.8a141.68,141.68,0,0,0,71.93-19.7A141.71,141.71,0,0,1,310,567.16Z" transform="translate(-49.59)"/><path class="cls-8" d="M271.92,824.12A49.43,49.43,0,0,0,262.81,795L73.46,546.65a83.73,83.73,0,0,1-17.82-52,84.67,84.67,0,0,1,43.42-74l-5.53,3.15a84.66,84.66,0,0,0-43.5,74,83.72,83.72,0,0,0,17.82,52.06l189.34,248.3a49.43,49.43,0,0,1,9.11,29.17A50.47,50.47,0,0,1,242,870.48l5.6-3.19A50.46,50.46,0,0,0,271.92,824.12Z" transform="translate(-49.59)"/><polygon class="cls-8" points="5.61 996.8 5.61 976.9 0 980.1 0 1000 9.98 994.32 9.98 994.31 5.61 996.8"/><path class="cls-2" d="M159.5,406.15l-5,2.86a50.15,50.15,0,0,0-15,74.26l0,0L330.53,733.86A84.43,84.43,0,0,1,304,855.09l-3.14,1.78-.22.15,12-6.82A84.41,84.41,0,0,0,339.15,729L148.08,478.4l0,0a49.65,49.65,0,0,1-10.44-30.55A50.26,50.26,0,0,1,159.5,406.4v-.25Z" transform="translate(-49.59)"/><path class="cls-2" d="M260.71,119.19c0-29.19,11.73-55.39,32.12-71.89-1.52.56-3,1.2-4.44,1.84-22.92,16.21-36.3,43.84-36.3,74.94V333.49l8.62-4.92Z" transform="translate(-49.59)"/><path class="cls-2" d="M252.09,353.52V446c0,52.15,37.22,97.36,94.82,91.91,0,0,15.23-1,34-10q2-1.34,4-2.8c-16.6,7.07-29.4,7.91-29.4,7.91-57.6,5.45-94.83-39.76-94.83-91.91V348.61Z" transform="translate(-49.59)"/><path class="cls-2" d="M391.71,541.83c46.13-23.81,77.92-71.9,77.92-127.14v-77.1L461,342.5v77.08C461,471.29,433.11,516.69,391.71,541.83Z" transform="translate(-49.59)"/><path class="cls-9" d="M447.67,242.34l5.61-3.2.21-.11V152.67A141.87,141.87,0,0,0,424,66C396.4,29.89,354.86,9.18,310,9.18h-1.8a141.24,141.24,0,0,0-62.82,14.76,3.4,3.4,0,0,1-.63.32,3.78,3.78,0,0,0-.75.38l-.42.19,0,.05-.66.34c-.48.25-.95.5-1,.55a13.23,13.23,0,0,0-1.77,1c-.44.28-.9.59-1.53.92-41.32,26.72-66,71.76-66,120.46v230.1L106.26,416.1a85,85,0,0,0-43.1,74,83.71,83.71,0,0,0,17.9,52.31L270.4,790.69a49.08,49.08,0,0,1,9,28.93,50.14,50.14,0,0,1-24.12,42.82l-3.41,1.94s-.06,0,0,0l-.12.08L71.55,967.18l-8.63,4.91-.2.11V993l9.22-5.25,5.63-3,213.14-121.4c.33-.2.65-.43,1-.65s.57-.41.86-.59l3.74-2.13A84.84,84.84,0,0,0,322.93,738.1L132.08,487.83l0,0-.22-.29a49,49,0,0,1-10.35-30.29,49.55,49.55,0,0,1,23-41.93l2.81-1.61a.52.52,0,0,0,.15-.09l17.22-9.81v0l7.93-4.52v20.49A143.91,143.91,0,0,0,316.12,563.26h1.81a141.27,141.27,0,0,0,64-15.32l.32-.21c.25-.17.5-.35.73-.48l.31-.16a3.7,3.7,0,0,0,.35-.17c1.41-.84,2.82-1.7,4.18-2.54.25-.13.51-.26.76-.37s.52-.25.81-.41A142.88,142.88,0,0,0,452.89,436c.29-3.52.6-7.6.6-11.7V346.8l-7.72,4.41v65.35c0,7.71-1.2,47.73-24.64,78.37a110.35,110.35,0,0,1-27.73,25.64l-.82.47a8.43,8.43,0,0,1-.92.53c-1.49.94-2.92,1.76-4.14,2.45-2.64,1.63-5,3-7.25,4.13-.89.51-1.94,1.11-3,1.68-.65.4-1.27.74-1.9,1.07l-1,.52C355.2,541,339.13,542.22,339,542.23c-3.17.29-6.3.45-9.39.45-21.26,0-40.27-7.14-55.4-20.89-18.8-17.1-29.59-43-29.59-71.06V358.41ZM283.47,52.2c1.28-.82,2.65-1.59,4-2.3l.86-.48c.56-.35,1.16-.67,1.74-1,.42-.23.84-.45,1.27-.7A79.54,79.54,0,0,1,299.78,43a85.65,85.65,0,0,1,37.59-8.28q4.68,0,9.51.43v0c1.51.19,37.24,5,61.93,29.64,27.25,27.26,37,63.94,37,89.18v68.91L275.17,320V320l-10,5.67h0l-16.25,9.25v-.05l-4.36,2.48V128.78C244.57,96.51,259.11,67.87,283.47,52.2Zm131.28,451,0-.05ZM400.6,516l.27-.21Zm-72.47,27h0Z" transform="translate(-49.59)"/><path class="cls-3" d="M454.8,346.06l-1.72,1v77.05c0,3.94-.28,7.81-.59,11.67a143.39,143.39,0,0,1-63.35,107.33c.6-.3,1.21-.57,1.8-.87,39.86-25.47,66.51-70,66.51-120.56v-77.1Z" transform="translate(-49.59)"/><path class="cls-3" d="M244.16,450.53c0,52.16,37.23,97.37,94.83,91.92,0,0,17.69-1.13,38.48-12.26.46-.28.93-.62,1.39-.91C359.39,539,343.35,540,343.35,540c-57.6,5.45-94.82-39.75-94.82-91.91V355.54l3.56-2v0L364.28,289.6,244.16,358Z" transform="translate(-49.59)"/><polygon class="cls-10" points="397.88 242.24 397.88 242.24 314.7 289.6 397.88 242.24"/><path class="cls-3" d="M457.45,150C457.45,71.35,393.06,7,314.36,7h-1.8a141.58,141.58,0,0,0-64.39,15.57c-.84.53-1.73,1-2.56,1.55A141.7,141.7,0,0,1,308.2,9.39H310c46.26,0,87.45,22.35,113.65,56.68a142,142,0,0,1,29.43,86.4V239l-5.61,3.2h0l10-5.68Z" transform="translate(-49.59)"/><path class="cls-9" d="M951.58,116a.57.57,0,0,0-.6,0l-74,42V113.56a.56.56,0,0,0-.3-.5.55.55,0,0,0-.59,0l-10.88,6.2a.61.61,0,0,0-.3.52v45.08l-26.19,15a.61.61,0,0,0-.3.52v7.09a.61.61,0,0,0,.89.53l25.6-14.63v63.32c0,.56.06,13.59,5.62,19.14a9.76,9.76,0,0,0,7,3,10.52,10.52,0,0,0,1.84-.18c5.89-1.06,11.56-7,16-16.78a79.91,79.91,0,0,0,6.2-19.76.6.6,0,0,0-.39-.65.69.69,0,0,0-.72.29c-5.61,10.33-14,25.84-19,25.84h-.24c-1.28-.13-2.31-1.53-3.08-4.14-1.25-4.22-1.13-12.84-1.13-12.93v-64l74.58-42.31a.59.59,0,0,0,.3-.53V116.5A.57.57,0,0,0,951.58,116Z" transform="translate(-49.59)"/><path class="cls-9" d="M831.11,538.58c-1.9,5.64-5.83,14.19-8.56,14.19a1.76,1.76,0,0,1-.33,0c-1.7-.44-1.52-3.62-1.52-3.7v-53c0-.57.27-13.84-7.66-16.42-11.17-3.62-20.32,8.55-26.35,16.59l-.2.26A162.72,162.72,0,0,0,773,518.86v-20.6a.61.61,0,0,0-.89-.53l-10.88,6.2a.62.62,0,0,0-.3.53V597.4a.57.57,0,0,0,.29.51.52.52,0,0,0,.31.1.6.6,0,0,0,.29-.08l10.88-6.2a.62.62,0,0,0,.3-.53V527.69c.92-1.63,9.81-17.46,12.58-21.29s11-15.23,17.35-15.23a5.3,5.3,0,0,1,1.63.27c4.07,1.45,4.12,8.82,4.12,8.9v52.23c0,.39.06,9.72,4.72,12.86,1.9,1.27,4.26,1.31,7,.2,6.68-2.75,10.81-12,11.93-26.81a.61.61,0,0,0-.47-.64A.64.64,0,0,0,831.11,538.58Z" transform="translate(-49.59)"/><path class="cls-9" d="M735.54,528a17.66,17.66,0,0,0-13.67-6.23h-.27a21.74,21.74,0,0,0-6.71,1.33s2.07-.6,2-.62a25.72,25.72,0,0,0-3.86,1.29c-.34.16-1.27.61-1.59.78L653,557.82V513.43a.6.6,0,0,0-.29-.51.59.59,0,0,0-.6,0l-10.88,6.2a.6.6,0,0,0-.3.52v45.09l-26.18,15a.6.6,0,0,0-.3.52v7.09a.58.58,0,0,0,.29.51.57.57,0,0,0,.6,0l25.59-14.62v63.32c0,.56.07,13.59,5.62,19.15a9.81,9.81,0,0,0,7,3,10.52,10.52,0,0,0,1.84-.18c5.89-1.06,11.56-7,16-16.78a80.48,80.48,0,0,0,6.21-19.76.61.61,0,0,0-.4-.65.67.67,0,0,0-.71.29c-5.61,10.33-14,25.84-19,25.84a.86.86,0,0,1-.23,0c-1.28-.12-2.32-1.52-3.09-4.13C652.84,639,653,630.41,653,630.31v-64l45-25.6c-3.68,8-6.18,19.46-6.32,38.24-.24,30.44,9.3,38.31,17.11,41.62a26.18,26.18,0,0,0,7.57,1.52c7.78,0,13.67-4.93,18.93-13.53,4.85-7.93,6.91-27.24,7.42-32.29.83-14.31.35-19.54.3-20C743,555,742,535.56,735.54,528Zm-1.9,67.57c-1.59,5.61-5.51,15.17-14,16.08a10,10,0,0,1-8.38-2c-3.81-3.27-6.59-9-7.06-19.6-.12-2.66-.44-9.93-.44-12.58l0-4.28c.51-19.58,4.51-33.66,11.58-40.7a12.38,12.38,0,0,1,8.73-4,11,11,0,0,1,2.13.22,9.35,9.35,0,0,1,6.87,5.56c3.24,8.36,4.11,21.14,4.09,27C737.17,574.8,735.37,589.41,733.64,595.56Z" transform="translate(-49.59)"/><path class="cls-9" d="M532.61,447.49a81.16,81.16,0,0,0,6.21-19.75.61.61,0,0,0-.4-.66.69.69,0,0,0-.72.29c-5.61,10.33-14,25.84-19,25.84h-.24c-1.28-.13-2.31-1.53-3.08-4.14-1.25-4.22-1.13-12.84-1.13-12.93V319.25a.57.57,0,0,0-.29-.51.59.59,0,0,0-.6,0l-10.88,6.2a.61.61,0,0,0-.3.52V442.33c0,.55.06,13.58,5.62,19.15a9.78,9.78,0,0,0,7,3,9.64,9.64,0,0,0,1.84-.18C522.52,463.21,528.19,457.25,532.61,447.49Z" transform="translate(-49.59)"/><path class="cls-9" d="M572.17,430.34c11.13,0,16.89-7.15,20.31-12.76,6.37-10.43,7.7-22.63,7.7-31a.6.6,0,0,0-.53-.59.54.54,0,0,0-.64.46c-.08.32-7,31.5-22.1,34.27a9.56,9.56,0,0,1-8.09-1.64c-4-3.19-6.31-10.35-6.79-21.26-.11-2.39-.18-5.28-.18-8l38-21.66a.59.59,0,0,0,.3-.53c0-.81,0-19.93-6.55-27.6A17.69,17.69,0,0,0,580,333.76h-.27a22.9,22.9,0,0,0-17,8.34c-6.71,8.3-12.92,19.95-12.92,48.83,0,34.33,14.7,38.7,19.2,39.22A28.17,28.17,0,0,0,572.17,430.34Zm-10.24-46.25c.62-19,4.6-32.72,11.54-39.64,3.12-3.13,6.15-4,8.53-4a9,9,0,0,1,1.71.16,10.29,10.29,0,0,1,7.52,5.61c2.47,5.21,3.29,17,3.43,19.21Z" transform="translate(-49.59)"/><path class="cls-9" d="M637.55,390.67a28.3,28.3,0,0,0,3.23.19c11.13,0,16.89-7.15,20.31-12.76a43.71,43.71,0,0,0,2.2-4.07v81.9c0,.25-.19,26-15.68,35.38-3.75,2.26-7.88,2.64-11.35,1-3.31-1.55-7.58-5.58-9.19-16.06C624.5,459.57,625,437,625,436.78a.59.59,0,0,0-.54-.61h-.05a.59.59,0,0,0-.59.52c-.23,1.59-5.43,39.29,1.34,54.15a20,20,0,0,0,17.58,11.81c.26,0,.53,0,.78,0,9.58,0,18.58-6.47,24.81-17.87,7.13-13,7-34.5,7-34.71V281a.56.56,0,0,0-.3-.51.57.57,0,0,0-.59,0l-10.88,6.2a.62.62,0,0,0-.3.53v14.68a12.64,12.64,0,0,0-1.06-1.41,17.64,17.64,0,0,0-13.66-6.23h-.26a23,23,0,0,0-17,8.34c-6.71,8.3-12.91,19.95-12.91,48.83C618.35,385.78,633.05,390.15,637.55,390.67Zm8-9.47a9.51,9.51,0,0,1-8.09-1.64c-4-3.19-6.31-10.34-6.8-21.26-.1-2.45-.17-5.49-.18-8.35l.06-4.27C631,326.11,635,312,642.08,305c3.12-3.13,6.16-4,8.53-4a9.23,9.23,0,0,1,1.72.16,10.35,10.35,0,0,1,7.51,5.61c2.22,4.69,3.48,11.22,3.45,18v35.89C659.85,369.17,654,379.64,645.52,381.2Z" transform="translate(-49.59)"/><path class="cls-9" d="M759.31,305.29c-1.91,5.64-5.84,14.19-8.57,14.19l-.33,0c-1.7-.44-1.52-3.62-1.52-3.7V239.59a.56.56,0,0,0-.3-.51.57.57,0,0,0-.59,0l-10.87,6.2a.62.62,0,0,0-.3.53v14.7a12.1,12.1,0,0,0-1.07-1.43,17.65,17.65,0,0,0-13.67-6.22h-.27a22.84,22.84,0,0,0-17,8.33c-6.71,8.28-12.91,19.93-12.91,48.83,0,34.33,14.69,38.7,19.2,39.22a27.37,27.37,0,0,0,3.19.19c10.42,0,16.12-6.36,20.34-12.74a97.06,97.06,0,0,0,4.88-9.25c.51,1.7,1.59,4.13,3.65,5.19a5.79,5.79,0,0,0,5.41-.28c6.71-3.33,10.83-12.59,11.91-26.8a.63.63,0,0,0-.48-.64A.66.66,0,0,0,759.31,305.29Zm-22.48-22v35.89c-3.45,8.55-9.33,19-17.78,20.58a9.53,9.53,0,0,1-8.08-1.64c-4-3.19-6.31-10.35-6.8-21.26-.15-3.29-.18-6.65-.19-8.35l.06-4.27c.51-19.57,4.5-33.65,11.57-40.71,3.12-3.13,6.16-4,8.53-4a9.23,9.23,0,0,1,1.72.16,10.35,10.35,0,0,1,7.51,5.61C735.59,270,736.85,276.52,736.83,283.28Z" transform="translate(-49.59)"/><path class="cls-9" d="M846.85,256.8a.59.59,0,0,0-.57.41c-1.9,5.63-5.83,14.18-8.56,14.18l-.33,0c-1.7-.45-1.52-3.62-1.52-3.7v-53c0-.57.27-13.86-7.66-16.43-11.19-3.56-20.34,8.57-26.37,16.64l-.18.22a162.75,162.75,0,0,0-13.54,22.36V216.88a.57.57,0,0,0-.29-.51.59.59,0,0,0-.6,0l-10.88,6.2a.61.61,0,0,0-.3.52V316a.61.61,0,0,0,.6.6.6.6,0,0,0,.29-.08l10.88-6.19a.63.63,0,0,0,.3-.53V246.31c.92-1.64,9.81-17.45,12.58-21.3,3.09-4.26,12.48-17.21,19-14.95,4.07,1.44,4.12,8.82,4.12,8.9V271.2c0,.4.06,9.71,4.72,12.84,1.89,1.27,4.24,1.32,7,.21,6.68-2.75,10.81-12,11.93-26.8a.59.59,0,0,0-.47-.63Z" transform="translate(-49.59)"/><path class="cls-9" d="M502.86,695.72c0-.82,0-20-6.56-27.61a17.68,17.68,0,0,0-13.67-6.23h-.27a22.89,22.89,0,0,0-17,8.33c-6.7,8.28-12.91,19.93-12.91,48.84,0,34.34,14.7,38.7,19.2,39.21a30.64,30.64,0,0,0,3.23.19c11.14,0,16.88-7.15,20.31-12.75,6.36-10.44,7.7-22.65,7.7-31.06a.59.59,0,0,0-.54-.58.57.57,0,0,0-.64.46c-.07.32-7,31.5-22.1,34.26a9.52,9.52,0,0,1-8.07-1.6c-4-3.2-6.32-10.36-6.81-21.28-.11-2.39-.17-5.3-.18-8l38-21.65A.59.59,0,0,0,502.86,695.72ZM464.61,712.2c.62-19,4.6-32.71,11.54-39.64,3.11-3.12,6.15-4,8.52-4a11.06,11.06,0,0,1,1.71.14,10.4,10.4,0,0,1,7.52,5.61c2.48,5.23,3.3,17,3.43,19.22Z" transform="translate(-49.59)"/><path class="cls-9" d="M618,629.38c0-.81,0-20-6.56-27.61a17.63,17.63,0,0,0-13.68-6.23h-.27a22.82,22.82,0,0,0-17,8.33c-6.7,8.29-12.91,19.94-12.91,48.84,0,34.33,14.69,38.68,19.2,39.21a30.64,30.64,0,0,0,3.23.19c11.13,0,16.88-7.15,20.32-12.76,6.35-10.42,7.69-22.64,7.69-31a.59.59,0,0,0-.53-.59l-.07,0a.61.61,0,0,0-.58.48c-.07.32-7,31.5-22.1,34.26a9.58,9.58,0,0,1-8.09-1.63c-4-3.2-6.3-10.35-6.78-21.25-.12-2.55-.18-5.44-.19-8l38-21.65A.59.59,0,0,0,618,629.38Zm-38.25,16.48c.62-19,4.6-32.73,11.54-39.64,3.11-3.12,6.15-4,8.52-4a12.45,12.45,0,0,1,1.71.14,10.39,10.39,0,0,1,7.52,5.62c2.48,5.21,3.3,17,3.43,19.21Z" transform="translate(-49.59)"/><path class="cls-9" d="M557.68,688.45c-5.27,9.71-14,25.86-19,25.86h-.23c-1.27-.15-2.31-1.53-3.07-4.14-1.25-4.24-1.13-12.84-1.13-12.93V580.34a.56.56,0,0,0-.3-.5.55.55,0,0,0-.59,0L522.48,586a.59.59,0,0,0-.3.53V703.41c0,.55.06,13.6,5.61,19.15a9.75,9.75,0,0,0,7,3,9.87,9.87,0,0,0,1.85-.17c5.88-1.07,11.56-7,16-16.8a79.85,79.85,0,0,0,6.19-19.74.59.59,0,0,0-.39-.65A.69.69,0,0,0,557.68,688.45Z" transform="translate(-49.59)"/><path class="cls-9" d="M405.57,748.23,434,694.38a.61.61,0,0,0-.11-.71.65.65,0,0,0-.71-.1l-8.62,4.91a.59.59,0,0,0-.23.24L401,743V667.31a.56.56,0,0,0-.3-.5.55.55,0,0,0-.59,0L389.18,673a.61.61,0,0,0-.3.52V809.23a.6.6,0,0,0,.29.51.58.58,0,0,0,.3.09.61.61,0,0,0,.3-.08l10.88-6.18a.59.59,0,0,0,.3-.53v-50.2l36.74,29.1a.59.59,0,0,0,.66.06l4.87-2.67a.6.6,0,0,0,.31-.48.57.57,0,0,0-.23-.5Z" transform="translate(-49.59)"/></g></g></svg>