<svg xmlns="http://www.w3.org/2000/svg" xmlns:xlink="http://www.w3.org/1999/xlink" viewBox="0 0 999.99 1000"><defs><style>.cls-1{isolation:isolate;}.cls-2{fill:#fff;}.cls-3{fill:url(#linear-gradient);}.cls-4{fill:#43ebeb;}.cls-12,.cls-5{fill:#042fa8;}.cls-6{fill:#09ad00;}.cls-7{fill:#4f1fff;}.cls-8{fill:#18bf00;}.cls-9{fill:#56dd24;}.cls-10{fill:#7ff249;}.cls-11{fill:#1c1c1c;}.cls-12{mix-blend-mode:multiply;}</style><linearGradient id="linear-gradient" x1="1019.04" y1="1949.6" x2="2019.04" y2="1949.6" gradientTransform="translate(-1449.34 2019.04) rotate(-90)" gradientUnits="userSpaceOnUse"><stop offset="0" stop-color="#00d41f"/><stop offset="0.18" stop-color="#00d640"/><stop offset="0.59" stop-color="#00dc94"/><stop offset="1" stop-color="#00e2ef"/></linearGradient></defs><title>Large Profile Round</title><g class="cls-1"><g id="Layer_1" data-name="Layer 1"><circle class="cls-2" cx="500" cy="500" r="488.8"/><path class="cls-3" d="M500.27,1000c-275.7,0-500-224.3-500-500S224.57,0,500.27,0s500,224.3,500,500S776,1000,500.27,1000Zm0-977.61C236.91,22.39,22.66,236.64,22.66,500S236.91,977.61,500.27,977.61,977.88,763.36,977.88,500,763.62,22.39,500.27,22.39Z" transform="translate(-0.27)"/><path class="cls-4" d="M385.73,148.27c54.13,0,98.41,44.29,98.41,98.41v59.54l-2.45,1.39h0l8.38-4.77V243.32c0-54.13-44.28-98.41-98.41-98.41h-1.23a97.46,97.46,0,0,0-50.75,14.32,97.44,97.44,0,0,1,44.81-11Z" transform="translate(-0.27)"/><path class="cls-5" d="M335,233.35v144l3-1.71v-144c0-22,9.72-41.53,26.33-52.52-.84.4-1.64.85-2.45,1.28C344.92,191.36,335,211.09,335,233.35Z" transform="translate(-0.27)"/><path class="cls-5" d="M276.77,424.22h0l-8.49,4.84a34.56,34.56,0,0,0-17.9,30.32,34.2,34.2,0,0,0,7.18,21l0,0L389,652.75a58.06,58.06,0,0,1-18.25,83.38l-3.83,2.18,0,0L216.42,824h0L374,734.26A58,58,0,0,0,392,651.07L260.54,478.74l0,0a34.21,34.21,0,0,1-7.18-21,34.57,34.57,0,0,1,18-30.36l2-1.12c.17-.09.32-.21.48-.3Z" transform="translate(-0.27)"/><path class="cls-6" d="M403.22,170.08s25.32,3,42.77,20.47c18.38,18.38,25.5,43.35,25.5,61.53v47.65l2.45-1.4V250.65c0-18.17-7.12-43.14-25.5-61.52-17.45-17.46-42.79-20.49-42.77-20.48-12.31-1.13-23.27.95-32.54,5.43-.47.3-.91.65-1.37,1A61.4,61.4,0,0,1,403.22,170.08Z" transform="translate(-0.27)"/><path class="cls-6" d="M286.08,246.68a98.5,98.5,0,0,1,45.26-82.62l-.53.26a98.48,98.48,0,0,0-47.18,83.79V406.63l2.45-1.4Z" transform="translate(-0.27)"/><path class="cls-6" d="M456.94,485.36c15.73-20.57,17-47,17-54.08v-45l-2.45,1.4v45c0,7.11-1.27,33.51-17,54.08a76.58,76.58,0,0,1-18.92,17.59l1-.5A76.47,76.47,0,0,0,456.94,485.36Z" transform="translate(-0.27)"/><path class="cls-6" d="M384.49,531.9c-54.12,0-98.41-44.28-98.41-98.41V418.94l-5.45,3.1v0l3-1.71v14.57c0,54.12,44.29,98.41,98.41,98.41h1.24a97.49,97.49,0,0,0,44.38-10.75c.64-.39,1.29-.76,1.92-1.17a97.4,97.4,0,0,1-43.85,10.49Z" transform="translate(-0.27)"/><path class="cls-6" d="M359.54,708.63a34,34,0,0,0-6.27-20L223,517.79A57.58,57.58,0,0,1,210.79,482a58.21,58.21,0,0,1,29.5-50.66l-2,1.15a58.24,58.24,0,0,0-29.92,50.93,57.56,57.56,0,0,0,12.26,35.8L350.82,690a34,34,0,0,1,6.27,20.06,34.68,34.68,0,0,1-16.6,29.58l2.32-1.32A34.71,34.71,0,0,0,359.54,708.63Z" transform="translate(-0.27)"/><polygon class="cls-6" points="207.76 815.13 207.76 828.79 210.21 827.39 210.21 813.74 207.76 815.13"/><path class="cls-7" d="M382,149.7h1.24c54.13,0,98.41,44.28,98.41,98.41v59.5l2.45-1.39V246.68c0-54.12-44.28-98.41-98.41-98.41h-1.24a97.44,97.44,0,0,0-44.81,11c-.64.39-1.29.77-1.92,1.17A97.32,97.32,0,0,1,382,149.7Z" transform="translate(-0.27)"/><path class="cls-7" d="M365.41,178.71c-.35.16-.73.29-1.08.45-16.61,11-26.33,30.51-26.33,52.52v144l2.45-1.39v-144C340.45,208.86,349.65,189.85,365.41,178.71Z" transform="translate(-0.27)"/><path class="cls-7" d="M338,453.11c0,35.87,25.6,67,65.22,63.22,0,0,11-.72,24.42-7.39.47-.29.95-.61,1.42-.92-12.92,6.19-23.39,6.88-23.39,6.88-39.62,3.75-65.22-27.35-65.22-63.22V388.06L338,389.45Z" transform="translate(-0.27)"/><path class="cls-7" d="M253.38,457.7a34.21,34.21,0,0,0,7.18,21l0,0L392,651.07A58,58,0,0,1,374,734.26l2.15-1.23a58.06,58.06,0,0,0,18.25-83.38L263,477.31l0,0a34.15,34.15,0,0,1-7.18-21,34.57,34.57,0,0,1,17.48-30.06l-2,1.12A34.57,34.57,0,0,0,253.38,457.7Z" transform="translate(-0.27)"/><path class="cls-7" d="M479.87,382.92l1.82-1v53A98.47,98.47,0,0,1,436,517.83l.53-.25a98.52,98.52,0,0,0,47.66-84.09v-53l-4.27,2.43Z" transform="translate(-0.27)"/><path class="cls-8" d="M403.22,170.08s25.32,3,42.77,20.47c18.38,18.38,25.5,43.35,25.5,61.53v47.65l2.45-1.4V250.65c0-18.17-7.12-43.14-25.5-61.52-17.45-17.46-42.79-20.49-42.77-20.48-12.31-1.13-23.27.95-32.54,5.43-.47.3-.91.65-1.37,1A61.4,61.4,0,0,1,403.22,170.08Z" transform="translate(-0.27)"/><path class="cls-9" d="M446,190.55c-17.45-17.45-42.78-20.48-42.77-20.47a61.4,61.4,0,0,0-31.46,5l-1.42,1a61.88,61.88,0,0,1,29.88-4.31s25.32,3,42.77,20.47c18.38,18.39,25.5,43.36,25.5,61.53v47.68l-3.86,2.2h0l-100.2,57h0l107.06-60.95V252.08C471.49,233.9,464.37,208.93,446,190.55Z" transform="translate(-0.27)"/><path class="cls-9" d="M451.49,488.46a76.56,76.56,0,0,1-17.63,16.75c.56-.26,1.14-.55,1.71-.83a76.58,76.58,0,0,0,18.92-17.59c15.73-20.57,17-47,17-54.08v-45l2.45-1.4v0l.89-.51h0l-6.34,3.61v45C468.49,441.49,467.22,467.89,451.49,488.46Z" transform="translate(-0.27)"/><path class="cls-9" d="M208,828.79V815.13l2.45-1.39v0l130-74.07a34.68,34.68,0,0,0,16.6-29.58A34,34,0,0,0,350.82,690L220.6,519.22a57.56,57.56,0,0,1-12.26-35.8,58.24,58.24,0,0,1,29.92-50.93l2-1.15c.14-.09.27-.19.42-.27l42.92-24.44V248.11a98.48,98.48,0,0,1,47.18-83.79c-.41.21-.84.39-1.24.6a98.54,98.54,0,0,0-48.94,84.86V408.33l-3.86,2.2h0L235.2,434.2a58.23,58.23,0,0,0-29.86,50.89,57.59,57.59,0,0,0,12.25,35.8L347.82,691.67a34,34,0,0,1,6.27,20.06,34.7,34.7,0,0,1-16.73,29.69l-3.85,2.2h0L205,816.81v13.68Z" transform="translate(-0.27)"/><path class="cls-9" d="M383.28,533.33H382c-54.12,0-98.41-44.29-98.41-98.41V420.35l-3,1.71h0v14.52c0,54.12,44.29,98.41,98.41,98.41h1.24a97.46,97.46,0,0,0,45.62-11.35l1.76-1.07A97.49,97.49,0,0,1,383.28,533.33Z" transform="translate(-0.27)"/><path class="cls-9" d="M208,828.79V815.13l2.45-1.39v0l130-74.07a34.68,34.68,0,0,0,16.6-29.58A34,34,0,0,0,350.82,690L220.6,519.22a57.56,57.56,0,0,1-12.26-35.8,58.24,58.24,0,0,1,29.92-50.93l2-1.15c.14-.09.27-.19.42-.27l42.92-24.44V248.11a98.48,98.48,0,0,1,47.18-83.79c-.41.21-.84.39-1.24.6a98.54,98.54,0,0,0-48.94,84.86V408.33l-3.86,2.2h0L235.2,434.2a58.23,58.23,0,0,0-29.86,50.89,57.59,57.59,0,0,0,12.25,35.8L347.82,691.67a34,34,0,0,1,6.27,20.06,34.7,34.7,0,0,1-16.73,29.69l-3.85,2.2h0L205,816.81v13.68Z" transform="translate(-0.27)"/><path class="cls-10" d="M396.36,174s25.32,3,42.77,20.48c18.38,18.38,25.5,43.35,25.5,61.52v47.68l3.86-2.2V253.75c0-18.17-7.12-43.14-25.5-61.53-17.45-17.45-42.79-20.48-42.77-20.47a61.88,61.88,0,0,0-29.88,4.31c-.62.47-1.27.89-1.87,1.38A62.66,62.66,0,0,1,396.36,174Z" transform="translate(-0.27)"/><path class="cls-10" d="M451.49,488.46c15.73-20.57,17-47,17-54.08v-45l-3.86,2.2v45c0,7.12-1.28,33.52-17,54.08a76.61,76.61,0,0,1-15.81,15.44l2-.89A76.56,76.56,0,0,0,451.49,488.46Z" transform="translate(-0.27)"/><path class="cls-10" d="M280.63,249.78a98.54,98.54,0,0,1,48.94-84.86A98.62,98.62,0,0,0,276.77,252V410.53l3.86-2.2Z" transform="translate(-0.27)"/><path class="cls-10" d="M379,535c-54.12,0-98.41-44.29-98.41-98.41V422.07h0l-1.17.67c-.93.51-1.81,1.1-2.69,1.7v14.36c0,54.13,44.29,98.41,98.41,98.41h1.24a97.47,97.47,0,0,0,49.48-13.55A97.46,97.46,0,0,1,380.28,535Z" transform="translate(-0.27)"/><path class="cls-10" d="M354.09,711.73a34,34,0,0,0-6.27-20.06L217.59,520.89a57.59,57.59,0,0,1-12.25-35.8A58.23,58.23,0,0,1,235.2,434.2l-3.8,2.17a58.23,58.23,0,0,0-29.93,50.92,57.59,57.59,0,0,0,12.26,35.8L344,693.87a34,34,0,0,1,6.27,20.07,34.72,34.72,0,0,1-16.72,29.68l3.85-2.2A34.7,34.7,0,0,0,354.09,711.73Z" transform="translate(-0.27)"/><polygon class="cls-10" points="204.76 830.5 204.76 816.81 200.9 819.01 200.9 832.7 207.76 828.79 207.76 828.79 204.76 830.5"/><path class="cls-4" d="M276.77,424.26l-3.46,2a34.57,34.57,0,0,0-17.48,30.06,34.15,34.15,0,0,0,7.18,21l0,0L394.4,649.65A58.06,58.06,0,0,1,376.15,733L374,734.26l-.15.1,8.23-4.7a58.06,58.06,0,0,0,18.25-83.38L268.92,474l0,0a34.46,34.46,0,0,1,7.83-49.5v-.16Z" transform="translate(-0.27)"/><path class="cls-4" d="M346.38,226.89c0-20.08,8.07-38.1,22.09-49.45-1,.39-2.05.82-3.06,1.27-15.76,11.14-25,30.15-25,51.54v144l5.93-3.38Z" transform="translate(-0.27)"/><path class="cls-4" d="M340.45,388.06v63.62c0,35.87,25.6,67,65.22,63.22,0,0,10.47-.69,23.39-6.88q1.38-.91,2.76-1.92a68.66,68.66,0,0,1-20.22,5.44c-39.62,3.74-65.22-27.35-65.22-63.22V384.68Z" transform="translate(-0.27)"/><path class="cls-4" d="M436.48,517.58a98.63,98.63,0,0,0,53.59-87.45v-53l-5.93,3.38v53A98.52,98.52,0,0,1,436.48,517.58Z" transform="translate(-0.27)"/><path class="cls-11" d="M475,311.59l3.86-2.2.14-.08v-59.4a99.22,99.22,0,0,0-98.69-98.69H379a97,97,0,0,0-43.2,10.16,3.61,3.61,0,0,1-.44.22,2.05,2.05,0,0,0-.51.26l-.29.13v0c-.13.07-.29.16-.45.23-.33.18-.66.35-.71.39a10,10,0,0,0-1.21.7c-.31.19-.62.4-1.05.63a98.44,98.44,0,0,0-45.39,82.85V405.08l-45.65,26A58.47,58.47,0,0,0,210.51,482a57.57,57.57,0,0,0,12.31,36L353,688.74a33.71,33.71,0,0,1,6.22,19.89,34.49,34.49,0,0,1-16.59,29.45l-2.35,1.34s0,0,0,0l-.08,0L216.28,810.12l-5.94,3.38-.14.08v14.29l6.35-3.6,3.87-2.09L367,738.69l.67-.45a7,7,0,0,1,.59-.41l2.57-1.46a58.34,58.34,0,0,0,18.33-83.8L257.91,480.43l0,0-.15-.2a33.67,33.67,0,0,1-7.12-20.83,34.1,34.1,0,0,1,15.81-28.84l1.94-1.1.1-.07,11.84-6.74h0l5.45-3.11v14.09a99,99,0,0,0,98.69,98.69h1.24a97.11,97.11,0,0,0,44-10.54l.23-.14a4.68,4.68,0,0,1,.49-.33l.22-.11.24-.12c1-.57,1.94-1.16,2.87-1.74l.53-.26.55-.28a98.25,98.25,0,0,0,43.7-74c.2-2.41.41-5.22.41-8V383.44l-5.31,3v44.95c0,5.3-.82,32.82-16.94,53.9A76,76,0,0,1,437.64,503l-.56.33c-.21.13-.41.25-.63.36-1,.64-2,1.21-2.85,1.68-1.82,1.13-3.45,2.05-5,2.84-.61.35-1.33.77-2.07,1.16-.44.28-.88.51-1.31.74l-.67.36a72.06,72.06,0,0,1-24.37,7.43c-2.18.2-4.33.31-6.46.31-14.62,0-27.7-4.91-38.1-14.37-12.93-11.76-20.35-29.58-20.35-48.87v-63.5ZM362,180.81c.88-.56,1.82-1.09,2.74-1.58l.59-.33c.38-.24.79-.46,1.19-.68s.58-.3.88-.48a54,54,0,0,1,5.82-3.29,58.91,58.91,0,0,1,25.86-5.69q3.21,0,6.53.29h0c1,.13,25.62,3.41,42.6,20.39,18.74,18.75,25.42,44,25.42,61.34v47.39L356.32,365v0l-6.86,3.91h0l-11.18,6.36v0l-3,1.7V233.48C335.28,211.29,345.28,191.59,362,180.81ZM452.33,491l0,0Zm-9.73,8.83.18-.15Zm-49.85,18.61h0Z" transform="translate(-0.27)"/><path class="cls-5" d="M479.87,382.92l-1.18.68v53c0,2.71-.19,5.37-.41,8a98.58,98.58,0,0,1-43.57,73.82c.41-.2.83-.39,1.24-.6a98.47,98.47,0,0,0,45.74-82.91v-53Z" transform="translate(-0.27)"/><path class="cls-5" d="M335,454.78c0,35.87,25.6,67,65.22,63.22,0,0,12.17-.78,26.47-8.43l.95-.63c-13.39,6.67-24.42,7.39-24.42,7.39C363.6,520.07,338,489,338,453.11V389.45l2.45-1.39v0l77.17-43.93-82.62,47Z" transform="translate(-0.27)"/><polygon class="cls-12" points="474.56 311.52 474.56 311.52 417.35 344.09 474.56 311.52"/><path class="cls-5" d="M481.69,248.11c0-54.13-44.28-98.41-98.41-98.41H382a97.32,97.32,0,0,0-44.28,10.7c-.58.37-1.19.69-1.76,1.08a97.22,97.22,0,0,1,43-10.11h1.24a98.95,98.95,0,0,1,98.41,98.41v59.54l-3.86,2.19h0l6.86-3.91Z" transform="translate(-0.27)"/><path class="cls-11" d="M821.55,224.69a.38.38,0,0,0-.41,0l-50.89,28.88V223a.4.4,0,0,0-.2-.35.38.38,0,0,0-.41,0l-7.49,4.26a.42.42,0,0,0-.2.36v31l-18,10.3a.43.43,0,0,0-.21.36v4.88a.42.42,0,0,0,.2.35.43.43,0,0,0,.41,0L762,264.12v43.55c0,.38,0,9.35,3.86,13.16a6.69,6.69,0,0,0,4.8,2.06,7.9,7.9,0,0,0,1.27-.12c4-.74,8-4.83,11-11.55a55.88,55.88,0,0,0,4.27-13.58.42.42,0,0,0-.28-.45.49.49,0,0,0-.49.19c-3.86,7.11-9.66,17.78-13.06,17.78h-.17c-.87-.09-1.59-1-2.12-2.84-.85-2.91-.77-8.84-.77-8.9v-44l51.29-29.1a.42.42,0,0,0,.21-.36V225A.42.42,0,0,0,821.55,224.69Z" transform="translate(-0.27)"/><path class="cls-11" d="M738.7,515.34c-1.32,3.88-4,9.76-5.9,9.76l-.22,0c-1.17-.31-1-2.49-1-2.55V486.09c0-.4.18-9.52-5.28-11.29-7.68-2.5-14,5.88-18.12,11.41l-.13.17a112.07,112.07,0,0,0-9.32,15.39V487.61a.37.37,0,0,0-.2-.35.38.38,0,0,0-.41,0l-7.48,4.26a.43.43,0,0,0-.21.36V555.8a.42.42,0,0,0,.41.41.46.46,0,0,0,.2-.05l7.49-4.27a.4.4,0,0,0,.2-.36V507.85c.64-1.12,6.75-12,8.66-14.65s7.57-10.47,11.93-10.47a3.56,3.56,0,0,1,1.12.19c2.8,1,2.83,6.06,2.83,6.12V525c0,.27,0,6.69,3.25,8.84a4.9,4.9,0,0,0,4.8.14c4.6-1.89,7.44-8.26,8.21-18.44a.4.4,0,0,0-.32-.43C739,515.07,738.76,515.13,738.7,515.34Z" transform="translate(-0.27)"/><path class="cls-11" d="M673,508.06a12.13,12.13,0,0,0-9.4-4.29h-.19a14.82,14.82,0,0,0-4.61.92s1.42-.42,1.4-.43a17,17,0,0,0-2.66.89l-1.1.53-40.23,22.89V498a.4.4,0,0,0-.21-.35.43.43,0,0,0-.41,0L608.07,502a.41.41,0,0,0-.21.36v31l-18,10.28a.43.43,0,0,0-.2.37v4.87a.39.39,0,0,0,.2.35.38.38,0,0,0,.41,0l17.6-10.06v43.55c0,.39,0,9.35,3.87,13.18a6.74,6.74,0,0,0,4.8,2,6.91,6.91,0,0,0,1.27-.12c4.05-.73,8-4.83,11-11.54a55.74,55.74,0,0,0,4.27-13.59.43.43,0,0,0-.28-.45.46.46,0,0,0-.49.2c-3.86,7.1-9.66,17.77-13.06,17.77h-.17c-.88-.09-1.59-1-2.12-2.84-.86-2.91-.77-8.83-.77-8.9v-44l31-17.61c-2.53,5.52-4.25,13.38-4.35,26.3-.16,20.94,6.39,26.35,11.77,28.63a18,18,0,0,0,5.21,1c5.34,0,9.4-3.39,13-9.3,3.33-5.46,4.75-18.74,5.1-22.22.57-9.83.24-13.43.2-13.78C678.08,526.64,677.42,513.26,673,508.06Zm-1.31,46.47c-1.09,3.85-3.78,10.44-9.63,11.06a6.91,6.91,0,0,1-5.76-1.39c-2.62-2.25-4.53-6.2-4.85-13.48-.08-1.83-.31-6.83-.31-8.66l0-2.94c.35-13.46,3.1-23.15,8-28a8.52,8.52,0,0,1,6-2.77,8.13,8.13,0,0,1,1.46.15,6.44,6.44,0,0,1,4.73,3.83c2.23,5.75,2.82,14.54,2.81,18.55C674.08,540.25,672.85,550.3,671.65,554.53Z" transform="translate(-0.27)"/><path class="cls-11" d="M533.39,452.69a55.74,55.74,0,0,0,4.27-13.59.41.41,0,0,0-.28-.45.47.47,0,0,0-.49.2c-3.86,7.11-9.65,17.77-13.06,17.77h-.16c-.88-.08-1.59-1.05-2.13-2.84-.85-2.91-.77-8.83-.77-8.9V364.48a.42.42,0,0,0-.2-.35.43.43,0,0,0-.41,0l-7.49,4.27a.4.4,0,0,0-.2.36v80.39c0,.38,0,9.34,3.86,13.17a6.75,6.75,0,0,0,4.8,2,6.91,6.91,0,0,0,1.27-.12C526.45,463.5,530.35,459.4,533.39,452.69Z" transform="translate(-0.27)"/><path class="cls-11" d="M560.6,440.89c7.65,0,11.61-4.92,14-8.77,4.38-7.18,5.29-15.57,5.29-21.35a.4.4,0,0,0-.36-.41.39.39,0,0,0-.45.32c0,.22-4.81,21.67-15.2,23.57a6.56,6.56,0,0,1-5.55-1.13c-2.77-2.2-4.34-7.11-4.68-14.62-.07-1.64-.12-3.63-.12-5.5l26.16-14.9a.41.41,0,0,0,.2-.36c0-.56,0-13.71-4.51-19a12.13,12.13,0,0,0-9.4-4.29h-.18a15.83,15.83,0,0,0-11.72,5.74c-4.61,5.71-8.88,13.72-8.88,33.58,0,23.62,10.11,26.62,13.21,27A19.1,19.1,0,0,0,560.6,440.89Zm-7-31.81c.42-13.08,3.16-22.5,7.93-27.26a8.19,8.19,0,0,1,5.87-2.73,6,6,0,0,1,1.17.11,7.07,7.07,0,0,1,5.17,3.86c1.71,3.58,2.27,11.68,2.36,13.21Z" transform="translate(-0.27)"/><path class="cls-11" d="M605.57,413.61a19.1,19.1,0,0,0,2.22.13c7.66,0,11.61-4.92,14-8.78a29.65,29.65,0,0,0,1.51-2.8v56.33c0,.18-.13,17.89-10.79,24.34a8.25,8.25,0,0,1-7.8.7c-2.28-1.06-5.22-3.84-6.33-11-1.76-11.49-1.41-27-1.41-27.17a.38.38,0,0,0-.37-.41,0,0,0,0,0,0,0,.42.42,0,0,0-.4.37c-.16,1.09-3.73,27,.92,37.24a13.77,13.77,0,0,0,12.09,8.12h.54c6.59,0,12.78-4.45,17.06-12.29,4.91-9,4.83-23.73,4.83-23.87V338.2a.42.42,0,0,0-.2-.35.43.43,0,0,0-.41,0l-7.49,4.27a.41.41,0,0,0-.2.36v10.1a8.76,8.76,0,0,0-.73-1,12.13,12.13,0,0,0-9.4-4.29H613a15.8,15.8,0,0,0-11.72,5.74c-4.61,5.71-8.88,13.72-8.88,33.58C592.36,410.24,602.47,413.25,605.57,413.61Zm5.48-6.52a6.52,6.52,0,0,1-5.57-1.12c-2.76-2.2-4.34-7.12-4.67-14.63-.07-1.68-.12-3.77-.13-5.74l0-2.94c.35-13.45,3.1-23.14,8-28a8.17,8.17,0,0,1,5.87-2.74,7.16,7.16,0,0,1,6.34,4,29.72,29.72,0,0,1,2.38,12.35v24.69C620.9,398.82,616.87,406,611.05,407.09Z" transform="translate(-0.27)"/><path class="cls-11" d="M689.31,354.89c-1.31,3.88-4,9.76-5.89,9.76l-.23,0c-1.17-.31-1.05-2.5-1.05-2.55V309.7a.37.37,0,0,0-.2-.35.4.4,0,0,0-.41,0l-7.48,4.27a.41.41,0,0,0-.2.36v10.11a9,9,0,0,0-.74-1,12.12,12.12,0,0,0-9.4-4.28h-.18a15.71,15.71,0,0,0-11.71,5.73c-4.61,5.7-8.88,13.71-8.88,33.58,0,23.61,10.1,26.62,13.2,27a18.89,18.89,0,0,0,2.2.13c7.17,0,11.08-4.37,14-8.77a62.38,62.38,0,0,0,3.35-6.36,5.93,5.93,0,0,0,2.52,3.58,4,4,0,0,0,3.71-.2c4.62-2.28,7.45-8.66,8.2-18.43a.43.43,0,0,0-.33-.44A.45.45,0,0,0,689.31,354.89Zm-15.46-15.14v24.68c-2.38,5.88-6.42,13.08-12.23,14.16a6.58,6.58,0,0,1-5.56-1.13c-2.77-2.2-4.34-7.12-4.67-14.63-.11-2.26-.13-4.57-.13-5.74l0-2.94c.35-13.45,3.1-23.14,8-28a8.17,8.17,0,0,1,5.87-2.73,7.08,7.08,0,0,1,6.35,4A30,30,0,0,1,673.85,339.75Z" transform="translate(-0.27)"/><path class="cls-11" d="M749.52,321.53a.4.4,0,0,0-.39.29c-1.31,3.87-4,9.75-5.89,9.75l-.23,0c-1.17-.31-1-2.49-1-2.55V292.57c0-.4.18-9.54-5.27-11.31-7.7-2.45-14,5.9-18.14,11.45l-.12.15a111.82,111.82,0,0,0-9.31,15.38V294.07a.38.38,0,0,0-.21-.34.4.4,0,0,0-.41,0L701,298a.42.42,0,0,0-.21.36v63.92a.38.38,0,0,0,.21.35.31.31,0,0,0,.2.07.46.46,0,0,0,.21-.05l7.48-4.27a.42.42,0,0,0,.21-.36V314.32c.63-1.13,6.74-12,8.65-14.65,2.13-2.93,8.58-11.84,13.05-10.28,2.8,1,2.84,6.06,2.84,6.12v35.93c0,.27,0,6.68,3.24,8.83a4.92,4.92,0,0,0,4.81.14c4.6-1.89,7.43-8.26,8.21-18.43a.41.41,0,0,0-.33-.43Z" transform="translate(-0.27)"/><path class="cls-11" d="M512.93,623.41c0-.55,0-13.71-4.51-19a12.16,12.16,0,0,0-9.4-4.29h-.19a15.75,15.75,0,0,0-11.71,5.73c-4.62,5.69-8.89,13.71-8.89,33.59,0,23.62,10.12,26.62,13.21,27a19.23,19.23,0,0,0,2.22.13c7.66,0,11.61-4.92,14-8.77,4.38-7.18,5.3-15.57,5.3-21.36a.41.41,0,0,0-.37-.4.39.39,0,0,0-.44.32c0,.21-4.82,21.66-15.2,23.56a6.56,6.56,0,0,1-5.56-1.1c-2.77-2.2-4.34-7.13-4.68-14.64-.07-1.64-.12-3.64-.12-5.51l26.16-14.88A.42.42,0,0,0,512.93,623.41Zm-26.31,11.34c.43-13.07,3.16-22.5,7.94-27.26a8.19,8.19,0,0,1,5.85-2.72,8.61,8.61,0,0,1,1.19.09,7.17,7.17,0,0,1,5.17,3.86c1.7,3.6,2.26,11.69,2.36,13.22Z" transform="translate(-0.27)"/><path class="cls-11" d="M592.15,577.79c0-.56,0-13.72-4.51-19a12.14,12.14,0,0,0-9.42-4.29H578a15.73,15.73,0,0,0-11.7,5.73c-4.62,5.71-8.89,13.72-8.89,33.59,0,23.62,10.11,26.61,13.21,27a19.23,19.23,0,0,0,2.22.13c7.66,0,11.61-4.92,14-8.77,4.38-7.16,5.3-15.57,5.3-21.35a.41.41,0,0,0-.37-.41h0a.4.4,0,0,0-.4.33c-.05.22-4.82,21.66-15.2,23.57a6.64,6.64,0,0,1-5.57-1.13c-2.76-2.2-4.33-7.12-4.67-14.61-.07-1.75-.12-3.74-.12-5.51l26.16-14.89A.42.42,0,0,0,592.15,577.79Zm-26.31,11.33c.43-13.08,3.16-22.5,7.93-27.26a8.23,8.23,0,0,1,5.86-2.72,7,7,0,0,1,1.18.1A7.14,7.14,0,0,1,586,563.1c1.7,3.58,2.26,11.68,2.36,13.21Z" transform="translate(-0.27)"/><path class="cls-11" d="M550.63,618.42C547,625.1,541,636.2,537.56,636.2h-.15c-.88-.1-1.59-1.05-2.12-2.84-.86-2.92-.78-8.83-.78-8.9V544.06a.39.39,0,0,0-.2-.35.43.43,0,0,0-.41,0L526.42,548a.4.4,0,0,0-.21.36v80.39c0,.38,0,9.35,3.86,13.17a6.74,6.74,0,0,0,4.81,2,6.13,6.13,0,0,0,1.27-.12c4.05-.73,8-4.83,11-11.55a55.81,55.81,0,0,0,4.26-13.58.42.42,0,0,0-.27-.45A.49.49,0,0,0,550.63,618.42Z" transform="translate(-0.27)"/><path class="cls-11" d="M446,659.53l19.53-37a.42.42,0,0,0-.07-.5.44.44,0,0,0-.49-.06l-5.92,3.38a.35.35,0,0,0-.16.16l-16.07,30.46V603.88a.39.39,0,0,0-.2-.35.38.38,0,0,0-.41,0l-7.48,4.26a.43.43,0,0,0-.21.36v93.35a.42.42,0,0,0,.41.41.46.46,0,0,0,.2,0l7.49-4.26a.39.39,0,0,0,.2-.36V662.7l25.27,20a.41.41,0,0,0,.46,0l3.35-1.84a.38.38,0,0,0,.21-.32.41.41,0,0,0-.15-.35Z" transform="translate(-0.27)"/></g></g></svg>