<svg xmlns="http://www.w3.org/2000/svg" viewBox="0 0 420.04 1000"><defs><style>.cls-1{isolation:isolate;}.cls-2{fill:#43ebeb;}.cls-10,.cls-2,.cls-3,.cls-4,.cls-6,.cls-7,.cls-8,.cls-9{opacity:0.7;}.cls-12,.cls-3,.cls-5{fill:#042fa8;}.cls-6{fill:#09ad00;}.cls-7{fill:#4f1fff;}.cls-8{fill:#18bf00;}.cls-9{fill:#56dd24;}.cls-10{fill:#7ff249;}.cls-11{fill:#fff;}.cls-12{mix-blend-mode:multiply;}</style></defs><title>Monogram2</title><g class="cls-1"><g id="Layer_1" data-name="Layer 1"><path class="cls-2" d="M558.1,4.89c78.7,0,143.09,64.39,143.09,143.08v86.56l-3.57,2h0l12.19-6.93V143.08C709.81,64.38,645.42,0,566.73,0h-1.8a141.79,141.79,0,0,0-73.79,20.82A141.67,141.67,0,0,1,556.3,4.89Z" transform="translate(-289.77 0)"/><path class="cls-3" d="M484.34,128.59V338l4.37-2.49V126.15c0-32,14.13-60.37,38.28-76.35-1.22.57-2.38,1.23-3.56,1.86C498.77,67.53,484.34,96.22,484.34,128.59Z" transform="translate(-289.77 0)"/><g class="cls-4"><path class="cls-5" d="M399.68,406.1h0l-12.34,7a50.26,50.26,0,0,0-26,44.08,49.7,49.7,0,0,0,10.44,30.56l0,0L562.78,738.36a84.41,84.41,0,0,1-26.53,121.23l-5.57,3.18,0,0L311.93,987.38h0L541,856.87a84.37,84.37,0,0,0,26.1-120.94L376.08,485.36l0,0a49.76,49.76,0,0,1-10.44-30.56,50.27,50.27,0,0,1,26.12-44.14l2.86-1.63c.24-.13.46-.31.71-.44Z" transform="translate(-289.77 0)"/></g><path class="cls-6" d="M583.53,36.59S620.34,41,645.72,66.36c26.72,26.72,37.07,63,37.07,89.46V225.1l3.56-2V153.74c0-26.43-10.35-62.73-37.07-89.45C623.9,38.91,587.07,34.5,587.09,34.52c-17.89-1.64-33.83,1.38-47.31,7.88-.68.45-1.31,1-2,1.42C551,37.81,566.32,35,583.53,36.59Z" transform="translate(-289.77 0)"/><path class="cls-6" d="M413.22,148c0-50.25,26.32-94.58,65.8-120.12l-.77.37c-41,25.23-68.59,70.41-68.59,121.82V380.52l3.56-2Z" transform="translate(-289.77 0)"/><path class="cls-6" d="M661.64,495c22.86-29.91,24.71-68.29,24.71-78.63V351l-3.56,2v65.45c0,10.34-1.85,48.73-24.71,78.63a111.24,111.24,0,0,1-27.52,25.57l1.5-.72A111.27,111.27,0,0,0,661.64,495Z" transform="translate(-289.77 0)"/><path class="cls-6" d="M556.3,562.66c-78.69,0-143.08-64.39-143.08-143.08V398.42l-7.92,4.51v0l4.36-2.48v21.18c0,78.69,64.39,143.08,143.08,143.08h1.8a141.72,141.72,0,0,0,64.52-15.62c.93-.57,1.88-1.11,2.79-1.7a141.54,141.54,0,0,1-63.75,15.25Z" transform="translate(-289.77 0)"/><path class="cls-6" d="M520,819.62a49.4,49.4,0,0,0-9.11-29.16L321.57,542.15a83.7,83.7,0,0,1-17.83-52,84.64,84.64,0,0,1,42.9-73.65l-2.95,1.67a84.7,84.7,0,0,0-43.51,74.05A83.68,83.68,0,0,0,318,544.22L507.35,792.53a49.43,49.43,0,0,1,9.11,29.16,50.43,50.43,0,0,1-24.13,43l3.36-1.91A50.46,50.46,0,0,0,520,819.62Z" transform="translate(-289.77 0)"/><polygon class="cls-6" points="9.98 974.46 9.98 994.31 13.54 992.29 13.54 972.44 9.98 974.46"/><path class="cls-7" d="M552.74,7h1.8C633.24,7,697.62,71.35,697.62,150v86.52l3.57-2V148C701.19,69.28,636.8,4.89,558.1,4.89h-1.8a141.67,141.67,0,0,0-65.16,15.93c-.93.57-1.87,1.12-2.79,1.71A141.58,141.58,0,0,1,552.74,7Z" transform="translate(-289.77 0)"/><path class="cls-7" d="M528.56,49.14c-.51.23-1.06.42-1.57.66-24.15,16-38.28,44.35-38.28,76.35V335.51l3.56-2V124.08C492.27,93,505.65,65.35,528.56,49.14Z" transform="translate(-289.77 0)"/><path class="cls-7" d="M488.71,448.1c0,52.16,37.22,97.36,94.82,91.91,0,0,16-1,35.51-10.73.69-.43,1.38-.89,2.06-1.34-18.78,9-34,10-34,10-57.6,5.45-94.82-39.76-94.82-91.91V353.52l-3.56,2Z" transform="translate(-289.77 0)"/><path class="cls-7" d="M365.67,454.78a49.76,49.76,0,0,0,10.44,30.56l0,0L567.14,735.93A84.37,84.37,0,0,1,541,856.87l3.14-1.78A84.42,84.42,0,0,0,570.7,733.86L379.64,483.29l0,0a50.15,50.15,0,0,1,15-74.26l-2.86,1.63A50.27,50.27,0,0,0,365.67,454.78Z" transform="translate(-289.77 0)"/><path class="cls-7" d="M695,346.06l2.64-1.51v77.1c0,50.55-26.64,95.09-66.5,120.56l.77-.38c41.4-25.14,69.3-70.54,69.3-122.25V342.5L695,346Z" transform="translate(-289.77 0)"/><path class="cls-8" d="M583.53,36.59S620.34,41,645.72,66.36c26.72,26.72,37.07,63,37.07,89.46V225.1l3.56-2V153.74c0-26.43-10.35-62.73-37.07-89.45C623.9,38.91,587.07,34.5,587.09,34.52c-17.89-1.64-33.83,1.38-47.31,7.88-.68.45-1.31,1-2,1.42C551,37.81,566.32,35,583.53,36.59Z" transform="translate(-289.77 0)"/><path class="cls-9" d="M645.72,66.36C620.34,41,583.51,36.58,583.53,36.59,566.32,35,551,37.81,537.8,43.82q-1,.72-2.07,1.47A90.06,90.06,0,0,1,579.17,39s36.81,4.4,62.18,29.77c26.73,26.73,37.08,63,37.08,89.46v69.33l-5.61,3.19h0L527.13,313.72h0L682.79,225.1V155.82C682.79,129.39,672.44,93.08,645.72,66.36Z" transform="translate(-289.77 0)"/><path class="cls-9" d="M653.71,499.5a111.28,111.28,0,0,1-25.63,24.35c.81-.38,1.65-.8,2.48-1.21a111.24,111.24,0,0,0,27.52-25.57c22.86-29.9,24.71-68.29,24.71-78.63V353l3.56-2v-.05l1.3-.73h0l-9.22,5.24v65.44C678.43,431.21,676.58,469.6,653.71,499.5Z" transform="translate(-289.77 0)"/><path class="cls-9" d="M299.74,994.31V974.46l3.56-2v-.05l189-107.69a50.43,50.43,0,0,0,24.13-43,49.43,49.43,0,0,0-9.11-29.16L318,544.22a83.68,83.68,0,0,1-17.83-52.05,84.7,84.7,0,0,1,43.51-74.05l2.95-1.67c.21-.12.4-.28.61-.4l62.41-35.53V150c0-51.41,27.58-96.59,68.59-121.82-.6.3-1.22.56-1.81.87C434,54,405.3,100,405.3,152.47V383l-5.62,3.19h0l-60.44,34.41a84.67,84.67,0,0,0-43.42,74,83.73,83.73,0,0,0,17.82,52L503,795a49.36,49.36,0,0,1,9.12,29.16,50.46,50.46,0,0,1-24.33,43.17l-5.6,3.19h0L295.38,976.9v19.9Z" transform="translate(-289.77 0)"/><path class="cls-9" d="M554.54,564.73h-1.8c-78.69,0-143.08-64.39-143.08-143.08V400.47L405.3,403v21.13c0,78.7,64.39,143.08,143.08,143.08h1.8a141.71,141.71,0,0,0,66.32-16.49c.86-.51,1.71-1,2.56-1.56A141.72,141.72,0,0,1,554.54,564.73Z" transform="translate(-289.77 0)"/><path class="cls-9" d="M299.74,994.31V974.46l3.56-2v-.05l189-107.69a50.43,50.43,0,0,0,24.13-43,49.43,49.43,0,0,0-9.11-29.16L318,544.22a83.68,83.68,0,0,1-17.83-52.05,84.7,84.7,0,0,1,43.51-74.05l2.95-1.67c.21-.12.4-.28.61-.4l62.41-35.53V150c0-51.41,27.58-96.59,68.59-121.82-.6.3-1.22.56-1.81.87C434,54,405.3,100,405.3,152.47V383l-5.62,3.19h0l-60.44,34.41a84.67,84.67,0,0,0-43.42,74,83.73,83.73,0,0,0,17.82,52L503,795a49.36,49.36,0,0,1,9.12,29.16,50.46,50.46,0,0,1-24.33,43.17l-5.6,3.19h0L295.38,976.9v19.9Z" transform="translate(-289.77 0)"/><path class="cls-10" d="M573.56,42.23s36.8,4.39,62.18,29.76c26.73,26.73,37.08,63,37.08,89.46v69.32l5.61-3.19V158.25c0-26.43-10.35-62.73-37.08-89.46C616,43.42,579.15,39,579.17,39a90.06,90.06,0,0,0-43.44,6.27c-.91.68-1.85,1.3-2.73,2A90.79,90.79,0,0,1,573.56,42.23Z" transform="translate(-289.77 0)"/><path class="cls-10" d="M653.71,499.5c22.87-29.9,24.72-68.29,24.72-78.63V355.43l-5.61,3.2v65.44c0,10.35-1.86,48.73-24.72,78.63a111.48,111.48,0,0,1-23,22.44c1-.41,2-.83,3-1.29A111.28,111.28,0,0,0,653.71,499.5Z" transform="translate(-289.77 0)"/><path class="cls-10" d="M405.3,152.47C405.3,100,434,54,476.44,29.09c-45.51,24-76.76,71.8-76.76,126.59V386.19L405.3,383Z" transform="translate(-289.77 0)"/><path class="cls-10" d="M548.38,567.16c-78.69,0-143.08-64.38-143.08-143.08V403l-1.71,1c-1.35.75-2.64,1.6-3.91,2.47v20.89c0,78.69,64.39,143.08,143.09,143.08h1.79a141.72,141.72,0,0,0,71.94-19.7,141.71,141.71,0,0,1-66.32,16.49Z" transform="translate(-289.77 0)"/><path class="cls-10" d="M512.1,824.12A49.36,49.36,0,0,0,503,795L313.64,546.65a83.73,83.73,0,0,1-17.82-52,84.67,84.67,0,0,1,43.42-74l-5.53,3.15a84.66,84.66,0,0,0-43.5,74A83.72,83.72,0,0,0,308,549.86l189.34,248.3a49.43,49.43,0,0,1,9.11,29.17,50.47,50.47,0,0,1-24.31,43.15l5.6-3.19A50.46,50.46,0,0,0,512.1,824.12Z" transform="translate(-289.77 0)"/><polygon class="cls-10" points="5.61 996.8 5.61 976.9 0 980.1 0 1000 9.98 994.32 9.98 994.31 5.61 996.8"/><path class="cls-2" d="M399.68,406.15l-5,2.86a50.15,50.15,0,0,0-15,74.26l0,0L570.7,733.86a84.42,84.42,0,0,1-26.52,121.23L541,856.87l-.22.15,12-6.82A84.41,84.41,0,0,0,579.33,729L388.26,478.4l0,0a49.65,49.65,0,0,1-10.44-30.55,50.26,50.26,0,0,1,21.82-41.42v-.25Z" transform="translate(-289.77 0)"/><path class="cls-2" d="M500.89,119.19C500.89,90,512.62,63.8,533,47.3c-1.51.56-3,1.2-4.44,1.84C505.65,65.35,492.27,93,492.27,124.08V333.49l8.62-4.92Z" transform="translate(-289.77 0)"/><path class="cls-2" d="M492.27,353.52V446c0,52.15,37.22,97.36,94.82,91.91,0,0,15.23-1,34-10q2-1.34,4-2.8c-16.6,7.07-29.4,7.91-29.4,7.91-57.6,5.45-94.83-39.76-94.83-91.91V348.61Z" transform="translate(-289.77 0)"/><path class="cls-2" d="M631.89,541.83C678,518,709.81,469.93,709.81,414.69v-77.1l-8.62,4.91v77.08C701.19,471.29,673.29,516.69,631.89,541.83Z" transform="translate(-289.77 0)"/><path class="cls-11" d="M687.84,242.34l5.62-3.2.21-.11V152.67A141.87,141.87,0,0,0,664.16,66C636.58,29.89,595,9.18,550.17,9.18h-1.79a141.24,141.24,0,0,0-62.82,14.76,3.4,3.4,0,0,1-.63.32,3.78,3.78,0,0,0-.75.38l-.42.19,0,.05-.66.34-1,.55a13.72,13.72,0,0,0-1.76,1c-.44.28-.91.59-1.53.92-41.32,26.72-66,71.76-66,120.46v230.1L346.44,416.1a85,85,0,0,0-43.1,74,83.71,83.71,0,0,0,17.9,52.31L510.58,790.69a49.08,49.08,0,0,1,9,28.93,50.14,50.14,0,0,1-24.12,42.82l-3.41,1.94s-.06,0,0,0l-.11.08L311.73,967.18l-8.63,4.91-.2.11V993l9.22-5.25,5.63-3,213.14-121.4c.33-.2.65-.43,1-.65s.57-.41.86-.59l3.74-2.13A84.82,84.82,0,0,0,563.1,738.1L372.25,487.83l0,0-.23-.29a49.66,49.66,0,0,1,12.65-72.22l2.81-1.61a.52.52,0,0,0,.15-.09l17.22-9.81v0l7.93-4.52v20.49A143.89,143.89,0,0,0,556.3,563.26h1.81a141.3,141.3,0,0,0,64-15.32l.32-.21c.25-.17.5-.35.73-.48l.31-.16a3.7,3.7,0,0,0,.35-.17c1.41-.84,2.82-1.7,4.18-2.54.25-.13.5-.26.76-.37s.52-.25.81-.41A142.88,142.88,0,0,0,693.07,436c.29-3.52.6-7.6.6-11.7V346.8L686,351.21v65.35c0,7.71-1.2,47.73-24.64,78.37a110.35,110.35,0,0,1-27.73,25.64l-.82.47a8.43,8.43,0,0,1-.92.53c-1.49.94-2.92,1.76-4.14,2.45-2.64,1.63-5,3-7.25,4.13-.89.51-1.94,1.11-3,1.68-.65.4-1.28.74-1.9,1.07l-1,.52c-19.18,9.59-35.25,10.8-35.43,10.81-3.17.29-6.3.45-9.39.45-21.27,0-40.27-7.14-55.4-20.89-18.8-17.1-29.59-43-29.59-71.06V358.41ZM523.65,52.2c1.28-.82,2.64-1.59,4-2.3l.86-.48c.56-.35,1.16-.67,1.74-1,.42-.23.84-.45,1.27-.7A79.54,79.54,0,0,1,540,43a85.61,85.61,0,0,1,37.59-8.28q4.68,0,9.51.43v0c1.51.19,37.23,5,61.93,29.64,27.24,27.26,37,63.94,37,89.18v68.91L515.34,320V320l-10,5.67h0l-16.25,9.25v-.05l-4.36,2.48V128.78C484.75,96.51,499.29,67.87,523.65,52.2Zm131.28,451,0-.05ZM640.78,516l.27-.21Zm-72.48,27h0Z" transform="translate(-289.77 0)"/><path class="cls-3" d="M695,346.06l-1.72,1v77.05c0,3.94-.28,7.81-.59,11.67a143.39,143.39,0,0,1-63.35,107.33c.6-.3,1.2-.57,1.8-.87,39.86-25.47,66.5-70,66.5-120.56v-77.1Z" transform="translate(-289.77 0)"/><path class="cls-3" d="M484.34,450.53c0,52.16,37.23,97.37,94.83,91.92,0,0,17.69-1.13,38.48-12.26.46-.28.93-.62,1.39-.91C599.57,539,583.53,540,583.53,540c-57.6,5.45-94.82-39.75-94.82-91.91V355.54l3.56-2v0L604.46,289.6,484.34,358Z" transform="translate(-289.77 0)"/><g class="cls-4"><polygon class="cls-12" points="397.88 242.24 397.88 242.24 314.7 289.6 397.88 242.24"/></g><path class="cls-3" d="M697.62,150C697.62,71.35,633.24,7,554.54,7h-1.8a141.58,141.58,0,0,0-64.39,15.57c-.84.53-1.73,1-2.56,1.55A141.7,141.7,0,0,1,548.38,9.39h1.8c46.26,0,87.45,22.35,113.65,56.68a142,142,0,0,1,29.43,86.4V239l-5.61,3.2h0l10-5.68Z" transform="translate(-289.77 0)"/></g></g></svg>